<svg xmlns="http://www.w3.org/2000/svg" viewBox="0 0 67.83 64.89"><defs><style>.cls-1{fill:#fff;}</style></defs><g id="Layer_2" data-name="Layer 2"><g id="Layer_1-2" data-name="Layer 1"><path class="cls-1" d="M33.71,64.89H3.57C.31,64.88,0,64.62,0,61.44c0-12.35,0-24.71,0-37.06A3.72,3.72,0,0,1,1.69,21c8.37-6.14,16.69-12.35,25-18.5a11.58,11.58,0,0,1,14.35,0c8.36,6.15,16.67,12.36,25,18.5a3.75,3.75,0,0,1,1.7,3.39c-.06,12.43,0,24.85,0,37.27,0,2.88-.36,3.23-3.33,3.23ZM61.84,23C53.69,17,45.89,11.15,38,5.41a7.39,7.39,0,0,0-8.59.28C27.25,7.23,25.15,8.84,23,10.41L6.18,22.9c.25.23.37.42.55.5,7.76,3.86,15.51,7.74,23.3,11.52a9,9,0,0,0,8.06-.11c2.09-1,4.13-2.05,6.19-3.07ZM7,60.58H60.82C54.06,53.25,47.56,46.17,41,39.15a2.19,2.19,0,0,0-1.9-.17A13.84,13.84,0,0,1,29,39c-1.29-.53-1.92-.15-2.74.75-3.45,3.83-7,7.6-10.47,11.39Zm56.49-3.24V26.86L44.24,36.43Zm-59.31.1c6.65-7.2,13-14,19.38-21L4.21,26.83Z"/></g></g></svg>